<svg xmlns="http://www.w3.org/2000/svg" xmlns:xlink="http://www.w3.org/1999/xlink" viewBox="0 0 104.76 119.54"><defs><style>.cls-1{fill:url(#linear-gradient);}</style><linearGradient id="linear-gradient" x1="25.89" y1="16.08" x2="66.89" y2="116.08" gradientUnits="userSpaceOnUse"><stop offset="0" stop-color="#f44336"/><stop offset="1" stop-color="#2196f3"/></linearGradient></defs><title>Asset 5</title><g id="Layer_2" data-name="Layer 2"><g id="Layer_1-2" data-name="Layer 1"><path class="cls-1" d="M77.42,10.62c-.09,1-.09,2.29-1.38,2.22s-.83-1.28-.81-2.14c.07-3.75-2-6.44-6-7.58a26.3,26.3,0,0,0-13.67-.05C40.52,6.88,29,16.16,19.91,28.8c-3.65,5.06-2.73,8.73,2.23,12.47a50.08,50.08,0,0,0,9.28,5.34,1.58,1.58,0,0,1-.61,2.17,50.08,50.08,0,0,1-10.27-5.94c-5.54-4.36-6.5-9.06-2.61-15C24,18.45,32.33,11.58,41.71,6.1a42.7,42.7,0,0,1,19.08-6A24.1,24.1,0,0,1,71,1.37C75.14,3,77.81,6.81,77.42,10.62Zm-4,55.27C62,59.77,50.53,55.23,38.68,50c-.37.58-1.38.87-1.72,1.59,11.71,5.19,23.58,10,35,16C72.86,67.09,73.05,66.44,73.47,65.89ZM93.33,80.38a45.05,45.05,0,0,0-3.41-3.64l-2.66-2.32a111,111,0,0,0-10.2-6.63c-.8-.45-1.6,1.63-1.09,1.93A83,83,0,0,1,89.7,79.59c6.43,5.65,7,12.72,1.6,19.48a25.28,25.28,0,0,1-3.24,3.38,51.58,51.58,0,0,1-17.64,9.81c-18.11,6-36.21,7.33-54.24-.41a24.21,24.21,0,0,1-7.82-5.47,21.51,21.51,0,0,1-6.1-11.29c-.15-.83-.2-2.07-1.42-1.79S0,94.7.16,95.56a21,21,0,0,0,.69,2.59,24.41,24.41,0,0,0,13.68,15.32c21.66,9.54,43.07,7.11,64.12-2.29,6-2.69,11.48-6.44,15.4-12.17C98.42,92.61,98.19,86.38,93.33,80.38Zm9.24-13.5c.93-.3,2.5-.43,2.14-1.86-.42-1.66-1.76-.58-2.63-.28-5.79,2-9.45,1.83-14.94-3.91-2-2.15-5.91-5.24-10.42-10.92C76.55,48.06,82,36.69,84.12,34a2,2,0,0,0-.27-2.95c-.9-.61-1.38.27-1.72,1-3,6.46-5.55,13.16-8.88,19.46-.56,1.05.23,2.51,1.19,1.76,2.4-1.87,3.14.26,4.24,1.46,2.06,2.23,4,4.6,6,6.86a18.58,18.58,0,0,0,10.69,6.28A16.71,16.71,0,0,0,102.57,66.88ZM39.19,51.54c-.08-.89-.34-1.83-1.42-2-.9-.13-1.23-.07-1.69.55s-.53,1.52.36,2c1.23.64.68,2.48.62,3.35a108.78,108.78,0,0,1-4.21,25c-.23.76-.75,1.61.3,2s1.39-.36,1.68-1.16a23.07,23.07,0,0,0,.76-2.26,134.55,134.55,0,0,0,3.62-23.43C39.21,53.94,39.29,52.73,39.19,51.54ZM68.76,41.35c.6,10.71,1.57,10.79,2.14,20.82.12,1,.33,2,.52,3.06s.6,2.08,1.46,1.65.58-1.66.43-2.67c-1.25-11.13-2.19-11.73-2.47-23C70.07,40.39,69.38,40.44,68.76,41.35Z"/></g></g></svg>