<svg xmlns="http://www.w3.org/2000/svg" viewBox="0 0 733.76 210.97"><defs><style>.cls-1{fill:#2b3639;}</style></defs><title>Asset 4</title><g id="Layer_2" data-name="Layer 2"><g id="Layer_1-2" data-name="Layer 1"><path class="cls-1" d="M54.81,124.37q-2.25-3.78-5.17-8.49t-6.29-9.78Q40,101,36.34,95.82T29.12,85.74c-2.39-3.24-4.7-6.3-7-9.16S17.83,71.19,15.92,69v55.37H6.2V53.45h7.88q4.8,5.11,10.28,11.92t10.85,14q5.37,7.22,10.13,14.17t8,12.39V53.45H63.1v70.92Z"/><path class="cls-1" d="M84.8,61.53a6.08,6.08,0,0,1-4.35-1.69,5.92,5.92,0,0,1-1.79-4.55,6,6,0,0,1,1.79-4.56,6.44,6.44,0,0,1,8.7,0,6,6,0,0,1,1.79,4.56,6,6,0,0,1-1.79,4.55A6.11,6.11,0,0,1,84.8,61.53Zm4.81,62.84H80.09V71.15h9.52Z"/><path class="cls-1" d="M125.22,95.1a62.65,62.65,0,0,1,6.5,5.83q3.43,3.48,6.76,7.53t6.29,8.18q3,4.15,5,7.73H138.63a84.56,84.56,0,0,0-5-7.32q-2.82-3.73-5.89-7.16a86.52,86.52,0,0,0-6.24-6.3,58.61,58.61,0,0,0-6-4.81v25.59H106V46.59L115.5,45V93.46L120.92,88q3-3,5.84-6t5.42-5.89c1.71-1.87,3.18-3.53,4.4-5h11.16c-1.57,1.71-3.28,3.58-5.12,5.63s-3.75,4.11-5.73,6.19-4,4.16-6,6.25Z"/><path class="cls-1" d="M159.41,124.37V46.59L168.92,45V72.17A33.49,33.49,0,0,1,180.59,70a26.86,26.86,0,0,1,10.54,1.79,16.5,16.5,0,0,1,6.71,5,19.56,19.56,0,0,1,3.53,7.73,45,45,0,0,1,1,9.93v29.88h-9.52V96.53a45.8,45.8,0,0,0-.66-8.39,14.32,14.32,0,0,0-2.2-5.63,8.76,8.76,0,0,0-4.1-3.12,17.91,17.91,0,0,0-6.34-1,27,27,0,0,0-3.18.2c-1.09.14-2.13.29-3.12.46s-1.87.36-2.66.57a14.4,14.4,0,0,0-1.69.51v44.21Z"/><path class="cls-1" d="M222.55,61.53a6.11,6.11,0,0,1-4.35-1.69,6,6,0,0,1-1.79-4.55,6,6,0,0,1,1.79-4.56,6.44,6.44,0,0,1,8.7,0,6,6,0,0,1,1.79,4.56,6,6,0,0,1-1.79,4.55A6.08,6.08,0,0,1,222.55,61.53Zm4.81,62.84h-9.52V71.15h9.52Z"/><path class="cls-1" d="M259.7,125.39q-8.8-.19-12.48-3.78t-3.69-11.16V46.59L253.05,45v64a15.6,15.6,0,0,0,.41,3.89,5.32,5.32,0,0,0,1.33,2.45,5.55,5.55,0,0,0,2.46,1.38,24.22,24.22,0,0,0,3.78.77Z"/><path class="cls-1" d="M312.41,117.31q15.55,0,15.55-10.64a10.64,10.64,0,0,0-1.38-5.58,13.19,13.19,0,0,0-3.73-4,25.71,25.71,0,0,0-5.38-2.92q-3-1.23-6.39-2.46a62.7,62.7,0,0,1-7.37-3,25.55,25.55,0,0,1-6-4,16.86,16.86,0,0,1-4-5.47,18,18,0,0,1-1.49-7.68q0-9.32,6.35-14.53T316,51.81a46.3,46.3,0,0,1,11.72,1.38,26.9,26.9,0,0,1,7.73,3l-3.18,8.08a28.53,28.53,0,0,0-6.39-2.61A34.53,34.53,0,0,0,316,60.4a21.87,21.87,0,0,0-5.32.62,13.63,13.63,0,0,0-4.3,1.84A9.17,9.17,0,0,0,303.45,66a9,9,0,0,0-1.07,4.46,9.48,9.48,0,0,0,1.12,4.81,11,11,0,0,0,3.18,3.42,27,27,0,0,0,4.76,2.72c1.8.81,3.8,1.63,6,2.45q4.6,1.84,8.45,3.69a27.16,27.16,0,0,1,6.65,4.4A17.44,17.44,0,0,1,336.87,98a21.41,21.41,0,0,1,1.53,8.54q0,9.31-6.8,14.33t-19.19,5a48.69,48.69,0,0,1-7.73-.57,56.7,56.7,0,0,1-6.29-1.33,35.82,35.82,0,0,1-4.76-1.63c-1.33-.58-2.37-1.08-3.12-1.49l3-8.19a44.35,44.35,0,0,0,7.17,3A36.87,36.87,0,0,0,312.41,117.31Z"/><path class="cls-1" d="M367,69.82a27.81,27.81,0,0,1,9.67,1.48A15.71,15.71,0,0,1,383,75.5,15.91,15.91,0,0,1,386.4,82a31.24,31.24,0,0,1,1,8.24v33.26L384,124c-1.47.24-3.12.46-5,.67s-3.83.39-6,.56-4.28.26-6.4.26a35.25,35.25,0,0,1-8.29-.92,18.68,18.68,0,0,1-6.55-2.92,13.45,13.45,0,0,1-4.3-5.27,18.49,18.49,0,0,1-1.53-7.88,15.13,15.13,0,0,1,1.79-7.58,14.17,14.17,0,0,1,4.86-5.11A22.34,22.34,0,0,1,359.79,93a39.36,39.36,0,0,1,8.6-.92q1.44,0,3,.15c1,.11,2,.24,2.92.41l2.4.46c.68.14,1.16.24,1.43.31V90.7A21.53,21.53,0,0,0,377.6,86,10.58,10.58,0,0,0,375.76,82a9.46,9.46,0,0,0-3.63-2.87,14.37,14.37,0,0,0-6-1.07,45.29,45.29,0,0,0-8.24.66,29.11,29.11,0,0,0-5.27,1.39l-1.13-7.89a29.76,29.76,0,0,1,6.15-1.58A53.06,53.06,0,0,1,367,69.82Zm.82,47.69q3.38,0,6-.15a26.23,26.23,0,0,0,4.35-.56V100.93a12.26,12.26,0,0,0-3.32-.87,38.43,38.43,0,0,0-5.58-.35,36.79,36.79,0,0,0-4.55.3,14.13,14.13,0,0,0-4.41,1.28,9.43,9.43,0,0,0-3.32,2.66,7,7,0,0,0-1.33,4.45q0,5.13,3.27,7.12C361.06,116.85,364,117.51,367.78,117.51Z"/><path class="cls-1" d="M403.19,72.69q3.27-.82,8.64-1.74A73.82,73.82,0,0,1,424.27,70a23.45,23.45,0,0,1,8.6,1.38,15.1,15.1,0,0,1,5.83,4c.48-.34,1.23-.82,2.25-1.43a24.63,24.63,0,0,1,3.79-1.79,40.82,40.82,0,0,1,5-1.54,25.56,25.56,0,0,1,5.94-.66,24,24,0,0,1,10,1.79,14.42,14.42,0,0,1,6.09,5.06,19.69,19.69,0,0,1,3,7.78,58.83,58.83,0,0,1,.76,9.83v29.88H466V96.53a62.13,62.13,0,0,0-.46-8.08,15.76,15.76,0,0,0-1.74-5.63,8.09,8.09,0,0,0-3.48-3.33,13.11,13.11,0,0,0-5.68-1.07,21,21,0,0,0-7.94,1.28,15.49,15.49,0,0,0-4.24,2.3,36.47,36.47,0,0,1,1.23,5.83,52.74,52.74,0,0,1,.4,6.66v29.88h-9.51V96.53a53.59,53.59,0,0,0-.52-8.08,16.15,16.15,0,0,0-1.79-5.63,8,8,0,0,0-3.48-3.33,12.74,12.74,0,0,0-5.57-1.07c-1,0-2,0-3.07.1s-2.14.15-3.13.26-1.89.22-2.71.35-1.36.24-1.64.31v44.93h-9.51Z"/><path class="cls-1" d="M538.18,97.86A37.44,37.44,0,0,1,536.59,109a25.43,25.43,0,0,1-4.65,8.8,21.1,21.1,0,0,1-7.53,5.73,24,24,0,0,1-10.18,2,24.74,24.74,0,0,1-8.14-1.23,25.91,25.91,0,0,1-5.27-2.35V143.3h-9.51V72.79c2.25-.55,5.06-1.14,8.44-1.79a62.58,62.58,0,0,1,11.72-1,29.72,29.72,0,0,1,11,1.94,23.66,23.66,0,0,1,8.39,5.53,24.52,24.52,0,0,1,5.38,8.75A33.58,33.58,0,0,1,538.18,97.86Zm-9.93,0q0-9.3-4.6-14.32t-12.29-5a54.91,54.91,0,0,0-6.7.31,27.1,27.1,0,0,0-3.84.71v33.57a19.46,19.46,0,0,0,5,2.77,19,19,0,0,0,7.16,1.33,15.28,15.28,0,0,0,7-1.49,12.84,12.84,0,0,0,4.76-4.09,17.19,17.19,0,0,0,2.66-6.14A33.56,33.56,0,0,0,528.25,97.86Z"/><path class="cls-1" d="M568.78,69.82a27.81,27.81,0,0,1,9.67,1.48,15.71,15.71,0,0,1,6.35,4.2A15.91,15.91,0,0,1,588.22,82a30.83,30.83,0,0,1,1,8.24v33.26l-3.43.56c-1.47.24-3.12.46-5,.67s-3.84.39-6,.56-4.28.26-6.4.26a35.32,35.32,0,0,1-8.29-.92,18.68,18.68,0,0,1-6.55-2.92,13.45,13.45,0,0,1-4.3-5.27,18.49,18.49,0,0,1-1.53-7.88,15.13,15.13,0,0,1,1.79-7.58,14.17,14.17,0,0,1,4.86-5.11A22.43,22.43,0,0,1,561.61,93a39.36,39.36,0,0,1,8.6-.92q1.44,0,3,.15c1,.11,2,.24,2.92.41l2.4.46c.68.14,1.16.24,1.43.31V90.7a21.53,21.53,0,0,0-.51-4.66A10.58,10.58,0,0,0,577.58,82,9.46,9.46,0,0,0,574,79.08,14.37,14.37,0,0,0,568,78a45.36,45.36,0,0,0-8.24.66,29.11,29.11,0,0,0-5.27,1.39l-1.13-7.89a29.76,29.76,0,0,1,6.15-1.58A53.14,53.14,0,0,1,568.78,69.82Zm.82,47.69c2.25,0,4.25-.05,6-.15a26.23,26.23,0,0,0,4.35-.56V100.93a12.26,12.26,0,0,0-3.32-.87,38.43,38.43,0,0,0-5.58-.35,36.79,36.79,0,0,0-4.55.3,14.07,14.07,0,0,0-4.4,1.28,9.55,9.55,0,0,0-3.33,2.66,7,7,0,0,0-1.33,4.45q0,5.13,3.27,7.12C562.88,116.85,565.84,117.51,569.6,117.51Z"/><path class="cls-1" d="M605,72.69q3.27-.82,8.7-1.74A74.58,74.58,0,0,1,626.19,70a26.83,26.83,0,0,1,10.54,1.79,16.43,16.43,0,0,1,6.71,5A19.42,19.42,0,0,1,647,84.56a45,45,0,0,1,1,9.93v29.88h-9.52V96.53a45.8,45.8,0,0,0-.66-8.39,14.32,14.32,0,0,0-2.2-5.63,8.74,8.74,0,0,0-4.09-3.12,18,18,0,0,0-6.35-1c-1,0-2.08,0-3.17.1s-2.14.15-3.12.26-1.88.22-2.67.35l-1.68.31v44.93H605Z"/><path class="cls-1" d="M697.12,119.05a25.78,25.78,0,0,1-4.76,2.1,24.25,24.25,0,0,1-8.24,1.28,26.52,26.52,0,0,1-9.06-1.54,19.66,19.66,0,0,1-7.42-4.76,23.05,23.05,0,0,1-5-8,32,32,0,0,1-1.84-11.46,31.56,31.56,0,0,1,1.73-10.7,23.67,23.67,0,0,1,5.07-8.39A23.18,23.18,0,0,1,675.73,72a28.05,28.05,0,0,1,10.85-2,60.91,60.91,0,0,1,11.61,1c3.31.65,6.09,1.24,8.34,1.79v47.49q0,12.27-6.34,17.8T681,143.61a51.94,51.94,0,0,1-9.47-.82,53.64,53.64,0,0,1-7.73-1.94l1.74-8.29a44.53,44.53,0,0,0,7,2,42.08,42.08,0,0,0,8.65.87q8.49,0,12.23-3.37t3.74-10.75ZM697,79.54a32.79,32.79,0,0,0-3.84-.76,46.14,46.14,0,0,0-6.5-.36q-7.68,0-11.82,5t-4.15,13.31a23.23,23.23,0,0,0,1.18,7.88,15.53,15.53,0,0,0,3.17,5.42,12.31,12.31,0,0,0,4.61,3.17,14.44,14.44,0,0,0,5.37,1,21.52,21.52,0,0,0,7-1.08,17.24,17.24,0,0,0,5-2.5Z"/><path class="cls-1" d="M727.61,61.53a6.07,6.07,0,0,1-4.34-1.69,5.93,5.93,0,0,1-1.8-4.55,6,6,0,0,1,1.8-4.56,6.43,6.43,0,0,1,8.69,0,6,6,0,0,1,1.8,4.56,5.93,5.93,0,0,1-1.8,4.55A6.08,6.08,0,0,1,727.61,61.53Zm4.81,62.84h-9.51V71.15h9.51Z"/><path class="cls-1" d="M1.36,188.89A19.13,19.13,0,0,0,11,191.62c5.51,0,8.74-2.91,8.74-7.13,0-3.9-2.24-6.13-7.88-8.3-6.82-2.42-11-6-11-11.85C.87,157.83,6.26,153,14.38,153a19,19,0,0,1,9.24,2l-1.49,4.41a16.52,16.52,0,0,0-7.93-2c-5.71,0-7.88,3.41-7.88,6.26,0,3.91,2.55,5.83,8.31,8.06,7.07,2.73,10.66,6.14,10.66,12.28,0,6.45-4.77,12-14.63,12-4,0-8.43-1.18-10.66-2.67Z"/><path class="cls-1" d="M38.87,156.84v8.62h7.82v4.15H38.87v16.18c0,3.72,1.06,5.83,4.1,5.83a12,12,0,0,0,3.16-.37l.25,4.09a13.25,13.25,0,0,1-4.84.75,7.56,7.56,0,0,1-5.89-2.3c-1.55-1.61-2.11-4.28-2.11-7.81V169.61H28.89v-4.15h4.65v-7.19Z"/><path class="cls-1" d="M77.93,187.28c0,3.1.06,5.83.25,8.19H73.34l-.31-4.9h-.12A11.29,11.29,0,0,1,63,196.15c-4.71,0-10.35-2.61-10.35-13.15V165.46h5.45v16.62c0,5.7,1.74,9.54,6.7,9.54a7.88,7.88,0,0,0,7.19-5,8,8,0,0,0,.5-2.79V165.46h5.45Z"/><path class="cls-1" d="M112.9,151.45v36.27c0,2.66.06,5.7.25,7.75h-4.9l-.25-5.21h-.12a11.1,11.1,0,0,1-10.23,5.89c-7.25,0-12.83-6.14-12.83-15.25-.07-10,6.13-16.12,13.45-16.12,4.59,0,7.69,2.17,9,4.59h.12V151.45Zm-5.46,26.22a9.9,9.9,0,0,0-.24-2.29,8,8,0,0,0-7.88-6.32c-5.64,0-9,5-9,11.59,0,6.07,3,11.1,8.87,11.1a8.21,8.21,0,0,0,8-6.51,9.84,9.84,0,0,0,.24-2.36Z"/><path class="cls-1" d="M125,181.46c.12,7.37,4.84,10.41,10.29,10.41a19.71,19.71,0,0,0,8.31-1.55l.93,3.91a24.44,24.44,0,0,1-10,1.86c-9.24,0-14.76-6.08-14.76-15.13s5.33-16.18,14.08-16.18c9.79,0,12.4,8.62,12.4,14.13a20.94,20.94,0,0,1-.19,2.55Zm16-3.91c.06-3.47-1.43-8.87-7.57-8.87-5.52,0-7.93,5.09-8.37,8.87Z"/><path class="cls-1" d="M153,173.58c0-3.1-.06-5.64-.24-8.12h4.83l.31,5H158a11,11,0,0,1,9.92-5.64c4.15,0,10.6,2.48,10.6,12.77v17.92H173.1v-17.3c0-4.84-1.8-8.87-6.94-8.87a7.76,7.76,0,0,0-7.32,5.58,7.88,7.88,0,0,0-.37,2.55v18H153Z"/><path class="cls-1" d="M193.75,156.84v8.62h7.81v4.15h-7.81v16.18c0,3.72,1.05,5.83,4.09,5.83a11.93,11.93,0,0,0,3.16-.37l.25,4.09a13.21,13.21,0,0,1-4.84.75,7.57,7.57,0,0,1-5.89-2.3c-1.55-1.61-2.1-4.28-2.1-7.81V169.61h-4.65v-4.15h4.65v-7.19Z"/><path class="cls-1" d="M225.8,149v62h-4.15V149Z"/><path class="cls-1" d="M249,153.68h22.5v4.53H254.38v13.88h15.81v4.47H254.38v18.91H249Z"/><path class="cls-1" d="M277.39,174.82c0-3.53-.07-6.57-.25-9.36h4.77l.19,5.89h.25c1.36-4,4.65-6.57,8.3-6.57a6.05,6.05,0,0,1,1.55.18v5.15a8.32,8.32,0,0,0-1.86-.19c-3.84,0-6.57,2.92-7.31,7a14.66,14.66,0,0,0-.25,2.54v16h-5.39Z"/><path class="cls-1" d="M300.08,181.46c.12,7.37,4.83,10.41,10.29,10.41a19.74,19.74,0,0,0,8.31-1.55l.93,3.91a24.49,24.49,0,0,1-10,1.86c-9.23,0-14.75-6.08-14.75-15.13s5.33-16.18,14.07-16.18c9.8,0,12.4,8.62,12.4,14.13a21.38,21.38,0,0,1-.18,2.55Zm16-3.91c.06-3.47-1.42-8.87-7.56-8.87-5.52,0-7.94,5.09-8.37,8.87Z"/><path class="cls-1" d="M331.14,181.46c.12,7.37,4.83,10.41,10.29,10.41a19.71,19.71,0,0,0,8.31-1.55l.93,3.91a24.44,24.44,0,0,1-10,1.86c-9.24,0-14.76-6.08-14.76-15.13s5.33-16.18,14.07-16.18c9.8,0,12.4,8.62,12.4,14.13a21.38,21.38,0,0,1-.18,2.55Zm16-3.91c.07-3.47-1.42-8.87-7.56-8.87-5.52,0-7.94,5.09-8.37,8.87Z"/><path class="cls-1" d="M359.16,151.45h5.46v44h-5.46Z"/><path class="cls-1" d="M390.41,195.47l-.43-3.79h-.19a11.18,11.18,0,0,1-9.18,4.47c-6.07,0-9.17-4.28-9.17-8.62,0-7.25,6.45-11.22,18-11.16v-.62c0-2.48-.68-6.94-6.82-6.94a15,15,0,0,0-7.81,2.23l-1.24-3.6a18.63,18.63,0,0,1,9.86-2.66c9.17,0,11.4,6.26,11.4,12.27v11.22a42.51,42.51,0,0,0,.5,7.2Zm-.81-15.32c-6-.12-12.71.93-12.71,6.76a4.83,4.83,0,0,0,5.15,5.21,7.46,7.46,0,0,0,7.25-5,5.6,5.6,0,0,0,.31-1.74Z"/><path class="cls-1" d="M403.68,173.58c0-3.1-.06-5.64-.25-8.12h4.84l.31,5h.12a11,11,0,0,1,9.92-5.64c4.15,0,10.6,2.48,10.6,12.77v17.92h-5.46v-17.3c0-4.84-1.79-8.87-6.94-8.87a7.76,7.76,0,0,0-7.31,5.58,7.87,7.87,0,0,0-.38,2.55v18h-5.45Z"/><path class="cls-1" d="M459.48,194.35a20.17,20.17,0,0,1-8.62,1.74c-9.05,0-14.94-6.14-14.94-15.32s6.32-15.93,16.12-15.93a18.3,18.3,0,0,1,7.56,1.55l-1.24,4.22a12.58,12.58,0,0,0-6.32-1.43c-6.89,0-10.6,5.08-10.6,11.35,0,6.94,4.46,11.22,10.41,11.22a15.55,15.55,0,0,0,6.7-1.49Z"/><path class="cls-1" d="M468.53,181.46c.12,7.37,4.83,10.41,10.29,10.41a19.71,19.71,0,0,0,8.31-1.55l.93,3.91a24.44,24.44,0,0,1-10,1.86c-9.24,0-14.76-6.08-14.76-15.13s5.33-16.18,14.07-16.18c9.8,0,12.4,8.62,12.4,14.13a21.38,21.38,0,0,1-.18,2.55Zm16-3.91c.07-3.47-1.42-8.87-7.56-8.87-5.52,0-7.94,5.09-8.37,8.87Z"/><path class="cls-1" d="M496.55,174.82c0-3.53-.06-6.57-.25-9.36h4.78l.18,5.89h.25c1.37-4,4.65-6.57,8.31-6.57a6.11,6.11,0,0,1,1.55.18v5.15a8.45,8.45,0,0,0-1.86-.19c-3.84,0-6.57,2.92-7.32,7a15.78,15.78,0,0,0-.24,2.54v16h-5.4Z"/><path class="cls-1" d="M9.25,1.44V12.72h13V1.44h3.52v27H22.29V15.76h-13V28.4H5.77v-27Z"/><path class="cls-1" d="M33.69,19.36c.08,4.76,3.12,6.72,6.64,6.72a12.73,12.73,0,0,0,5.36-1l.6,2.52a15.72,15.72,0,0,1-6.44,1.19c-6,0-9.52-3.91-9.52-9.75S33.77,8.6,39.41,8.6c6.32,0,8,5.56,8,9.12a13.28,13.28,0,0,1-.12,1.64ZM44,16.84c0-2.24-.92-5.72-4.88-5.72-3.56,0-5.12,3.28-5.4,5.72Z"/><path class="cls-1" d="M51.77,0h3.52V28.4H51.77Z"/><path class="cls-1" d="M61.21,0h3.52V28.4H61.21Z"/><path class="cls-1" d="M88.17,18.56c0,7.16-5,10.27-9.64,10.27-5.24,0-9.28-3.83-9.28-9.95,0-6.48,4.24-10.28,9.6-10.28C84.41,8.6,88.17,12.64,88.17,18.56Zm-15.36.2c0,4.24,2.44,7.44,5.88,7.44s5.88-3.16,5.88-7.52c0-3.28-1.64-7.44-5.8-7.44S72.81,15.08,72.81,18.76Z"/><path class="cls-1" d="M104.69,1.44v27h-3.48v-27Z"/><path class="cls-1" d="M114.89,1a46.15,46.15,0,0,1-3.76,9.48l-2.24.28a56.63,56.63,0,0,0,2.36-9.4Z"/><path class="cls-1" d="M117.17,14.28c0-2,0-3.64-.16-5.24h3.08l.16,3.12h.12a6.67,6.67,0,0,1,6.08-3.56,5.72,5.72,0,0,1,5.48,3.88H132A8,8,0,0,1,134.17,10a6.61,6.61,0,0,1,4.28-1.36c2.56,0,6.36,1.68,6.36,8.4V28.4h-3.44v-11c0-3.72-1.36-6-4.2-6a4.56,4.56,0,0,0-4.16,3.2,5.8,5.8,0,0,0-.28,1.76v12h-3.44V16.8c0-3.08-1.36-5.32-4-5.32A4.81,4.81,0,0,0,120.89,15a4.85,4.85,0,0,0-.28,1.72V28.4h-3.44Z"/></g></g></svg>