<svg xmlns="http://www.w3.org/2000/svg" viewBox="0 0 373.65 426.36"><defs><style>.cls-1{fill:#eaeae8;}</style></defs><title>Asset 5</title><g id="Layer_2" data-name="Layer 2"><g id="Layer_1-2" data-name="Layer 1"><path class="cls-1" d="M276.15,37.89c-.35,3.49-.34,8.17-4.93,7.91-4.39-.25-3-4.56-2.89-7.62.25-13.4-7.15-23-21.56-27-16.16-4.55-32.62-4.25-48.72-.18C144.51,24.52,103.5,57.64,71,102.72,58,120.78,61.27,133.86,79,147.2c10.28,7.75,21.53,13.7,33.12,19.05,1.22,1.25,1.22,6.28-2.18,7.75-12.84-5.94-25.43-12.35-36.66-21.19C53.49,137.25,50.06,120.49,64,99.17c21.74-33.36,51.37-57.88,84.82-77.42,21.1-12.32,43.73-20,68.05-21.51,12.39-.76,24.61.17,36.36,4.65C268,10.54,277.52,24.27,276.15,37.89ZM262.07,235c-40.94-21.83-81.83-38-124.12-56.68-1.31,2.07-4.93,3.09-6.13,5.66,41.79,18.53,84.12,35.78,124.76,57.09C259.87,239.29,260.54,237,262.07,235Zm70.83,51.67a163.77,163.77,0,0,0-12.16-13l-9.51-8.29c-12.39-8.82-24.07-16.75-36.36-23.65-2.85-1.6-5.72,5.83-3.88,6.88a298.94,298.94,0,0,1,49,35.23c22.93,20.16,24.88,45.36,5.69,69.47a88.05,88.05,0,0,1-11.56,12.07c-18.7,16.05-39.92,27.41-62.9,35C186.57,421.7,122,426.57,57.7,398.93a86,86,0,0,1-27.87-19.48c-11-11.31-18.79-24.32-21.76-40.3-.55-2.94-.71-7.37-5.08-6.36-4.1.94-3,5-2.4,8A73.69,73.69,0,0,0,3,350.09c8.5,25.76,25.18,44.25,48.81,54.64,77.27,34,153.62,25.37,228.69-8.19,21.46-9.59,41-23,54.93-43.38C351,330.33,350.22,308.09,332.9,286.69Zm32.94-48.13c3.32-1.07,8.91-1.55,7.63-6.64-1.5-5.93-6.25-2.09-9.36-1C343.45,238,330.39,237.45,310.8,217c-7.13-7.65-21.08-18.68-37.14-38.94-.64-6.59,18.76-47.15,26.37-56.73,2.1-2.64,3.14-7.78-.95-10.52-3.22-2.16-4.94,1-6.14,3.56-10.76,23-19.81,46.91-31.68,69.41-2,3.74.84,8.95,4.27,6.27,8.54-6.68,11.18.92,15.12,5.2,7.32,8,14.17,16.4,21.41,24.46,9.78,10.88,21.18,19,38.13,22.4C347.25,243.17,356.65,241.53,365.84,238.56ZM139.77,183.84c-.28-3.18-1.21-6.55-5-7.07-3.23-.45-4.4-.26-6,2-2,2.73-1.91,5.41,1.27,7.06,4.39,2.28,2.43,8.84,2.24,11.94C130.31,228,126,258,117.17,287c-.82,2.68-2.69,5.71,1.06,7.19,3.25,1.29,5-1.3,6-4.15a82.84,82.84,0,0,0,2.7-8.06c7.17-28,10.92-56.5,12.92-83.57C139.86,192.38,140.13,188.08,139.77,183.84ZM245.24,147.5c2.15,38.2,5.61,38.46,7.65,74.24.43,3.71,1.17,7.32,1.86,10.92.74,3.87,2.12,7.43,5.2,5.9,3.56-1.77,2.08-5.92,1.53-9.55-4.47-39.69-7.82-41.84-8.79-81.93C249.93,144.08,247.46,144.25,245.24,147.5Z"/></g></g></svg>